HIERARCHY
ROOT Hips
{
	OFFSET -0.001795 -0.223333 0.028219
	CHANNELS 6 Xposition Yposition Zposition Zrotation Yrotation Xrotation 
	JOINT LeftUpLeg
	{
		OFFSET 0.069520 -0.091406 -0.006815
		CHANNELS 3 Zrotation Yrotation Xrotation
		JOINT LeftLeg
		{
			OFFSET 0.034277 -0.375199 -0.004496
			CHANNELS 3 Zrotation Yrotation Xrotation
			JOINT LeftFoot
			{
				OFFSET -0.013596 -0.397961 -0.043693
				CHANNELS 3 Zrotation Yrotation Xrotation
				JOINT LeftToe
				{
					OFFSET 0.026358 -0.055791 0.119288
					CHANNELS 3 Zrotation Yrotation Xrotation
					End Site
					{
						OFFSET 0.000000 0.000000 0.000000
					}
				}
			}
		}
	}
	JOINT RightUpLeg
	{
		OFFSET -0.067670 -0.090522 -0.004320
		CHANNELS 3 Zrotation Yrotation Xrotation
		JOINT RightLeg
		{
			OFFSET -0.038290 -0.382569 -0.008850
			CHANNELS 3 Zrotation Yrotation Xrotation
			JOINT RightFoot
			{
				OFFSET 0.015774 -0.398415 -0.042312
				CHANNELS 3 Zrotation Yrotation Xrotation
				JOINT RightToe
				{
					OFFSET -0.025372 -0.048144 0.123348
					CHANNELS 3 Zrotation Yrotation Xrotation
					End Site
					{
						OFFSET 0.000000 0.000000 0.000000
					}
				}
			}
		}
	}
	JOINT Spine
	{
		OFFSET -0.002533 0.108963 -0.026696
		CHANNELS 3 Zrotation Yrotation Xrotation
		JOINT Spine1
		{
			OFFSET 0.005487 0.135180 0.001092
			CHANNELS 3 Zrotation Yrotation Xrotation
			JOINT Spine2
			{
				OFFSET 0.001457 0.052922 0.025425
				CHANNELS 3 Zrotation Yrotation Xrotation
				JOINT Neck
				{
					OFFSET -0.002778 0.213870 -0.042857
					CHANNELS 3 Zrotation Yrotation Xrotation
					JOINT Head
					{
						OFFSET 0.005152 0.064970 0.051349
						CHANNELS 3 Zrotation Yrotation Xrotation
						End Site
						{
							OFFSET 0.000000 0.000000 0.000000
						}
					}
				}
				JOINT LeftShoulder
				{
					OFFSET 0.078845 0.121749 -0.034090
					CHANNELS 3 Zrotation Yrotation Xrotation
					JOINT LeftArm
					{
						OFFSET 0.090977 0.030469 -0.008868
						CHANNELS 3 Zrotation Yrotation Xrotation
						JOINT LeftForeArm
						{
							OFFSET 0.259612 -0.012772 -0.027456
							CHANNELS 3 Zrotation Yrotation Xrotation
							JOINT LeftHand
							{
								OFFSET 0.249234 0.008986 -0.001171
								CHANNELS 3 Zrotation Yrotation Xrotation
								End Site
								{
									OFFSET 0.000000 0.000000 0.000000
								}
							}
						}
					}
				}
				JOINT RightShoulder
				{
					OFFSET -0.081759 0.118833 -0.038615
					CHANNELS 3 Zrotation Yrotation Xrotation
					JOINT RightArm
					{
						OFFSET -0.096012 0.032551 -0.009143
						CHANNELS 3 Zrotation Yrotation Xrotation
						JOINT RightForeArm
						{
							OFFSET -0.253742 -0.013329 -0.021401
							CHANNELS 3 Zrotation Yrotation Xrotation
							JOINT RightHand
							{
								OFFSET -0.255298 0.007772 -0.005559
								CHANNELS 3 Zrotation Yrotation Xrotation
								End Site
								{
									OFFSET 0.000000 0.000000 0.000000
								}
							}
						}
					}
				}
			}
		}
	}
}
MOTION
Frames: 16
Frame Time: 0.050000
0.006654 0.937167 0.010866 0.178832 5.821346 -1.471076 6.372641 0.123614 11.041107 -3.670951 0.337239 -9.160308 0.984564 6.543931 11.051992 0.000000 0.000000 0.000000 -6.063048 -0.388216 7.456778 4.724485 -0.563802 -3.951559 -2.953547 -9.466062 9.003431 0.000000 0.000000 0.000000 0.817599 -0.105686 2.233050 0.485217 0.609898 -24.289275 -0.427859 -5.912536 26.893450 -8.293953 5.607434 -34.829012 0.000000 0.000000 0.000000 9.858586 -12.149825 3.105453 44.327760 -50.710477 -20.921274 65.216811 -8.065828 -5.790341 0.000000 0.000000 0.000000 32.041513 -4.959160 -6.677841 40.367302 6.222658 -3.617857 0.963337 21.967120 1.026866 0.000000 0.000000 0.000000 
0.005505 0.937271 0.010374 0.059797 5.736551 -1.547078 6.803536 0.074699 11.099344 -4.096989 0.344357 -9.182319 0.982674 6.568450 11.160164 0.000000 0.000000 0.000000 -5.715562 -0.419593 7.596647 4.446640 -0.539252 -4.175305 -2.916095 -9.403398 9.046439 0.000000 0.000000 0.000000 0.711019 -0.103995 2.248449 0.172715 0.680250 -24.005694 -0.152766 -6.682110 27.199777 -7.398796 5.055275 -34.973714 0.000000 0.000000 0.000000 7.232997 -12.816889 3.530281 41.057268 -52.408859 -20.354793 67.300028 -10.896089 -7.568074 0.000000 0.000000 0.000000 32.479414 -3.739734 -6.284208 40.091200 5.812752 -3.609163 0.606431 21.553494 0.907365 0.000000 0.000000 0.000000 
0.003951 0.937345 0.009906 -0.038315 5.393971 -1.384670 6.840824 0.078696 11.000835 -3.891475 0.344984 -9.310209 1.147814 6.848662 11.297520 0.000000 0.000000 0.000000 -5.602506 -0.411360 7.515408 4.552563 -0.545269 -4.538090 -2.752972 -9.108328 9.117463 0.000000 0.000000 0.000000 0.947816 -0.097541 1.994049 -0.171420 0.747152 -23.180758 -0.207462 -6.789505 27.245218 -6.240259 4.445854 -35.668836 0.000000 0.000000 0.000000 4.803985 -13.746012 4.106236 35.032221 -52.890741 -17.911435 72.338198 -14.150647 -10.295453 0.000000 0.000000 0.000000 33.900096 -3.113834 -6.278897 40.201795 5.998011 -3.491007 -0.333863 20.944164 0.719543 0.000000 0.000000 0.000000 
0.002344 0.937473 0.009568 -0.294320 5.282183 -1.692245 7.249248 0.041548 11.579742 -3.954597 0.342461 -9.803806 1.135162 6.892696 11.526547 0.000000 0.000000 0.000000 -5.321505 -0.453094 7.818353 4.694992 -0.556508 -4.607846 -2.654938 -8.933118 9.184174 0.000000 0.000000 0.000000 1.754816 -0.115023 2.032230 -1.582950 1.101910 -22.000536 0.190247 -7.061112 27.047251 -4.705393 3.666620 -34.734110 0.000000 0.000000 0.000000 0.318960 -14.513228 4.991079 27.274321 -53.285300 -14.811546 79.257109 -20.298734 -16.081284 0.000000 0.000000 0.000000 35.386894 -2.159430 -6.063194 39.371035 5.421698 -3.494246 0.291612 20.848680 0.798473 0.000000 0.000000 0.000000 
0.000668 0.937144 0.009124 -0.584051 5.131640 -1.657211 7.683460 -0.009967 11.563868 -4.015244 0.343770 -9.911136 1.236381 7.028218 11.487215 0.000000 0.000000 0.000000 -5.199072 -0.460397 7.843803 5.208824 -0.596022 -4.874080 -2.539500 -8.719078 9.223064 0.000000 0.000000 0.000000 2.626327 -0.156692 2.375204 -2.286894 1.283347 -21.150072 0.041510 -6.453992 26.611487 -2.984266 2.930512 -34.954968 0.000000 0.000000 0.000000 -4.031649 -14.084079 5.432126 15.977770 -52.943816 -10.216248 87.268640 -28.815408 -25.613162 0.000000 0.000000 0.000000 36.784478 -2.430230 -6.300376 39.638392 5.816196 -3.408696 -0.152159 19.743828 0.705727 0.000000 0.000000 0.000000 
-0.000731 0.936595 0.008719 -0.730033 5.193792 -1.704230 8.021287 -0.057064 11.481828 -4.155819 0.345099 -9.779063 1.251610 7.001676 11.300239 0.000000 0.000000 0.000000 -4.732821 -0.498173 7.860159 4.840017 -0.568124 -4.878790 -2.620921 -8.829283 8.984650 0.000000 0.000000 0.000000 3.609475 -0.219585 2.888454 -3.169799 1.523398 -20.973142 -0.334484 -5.904568 26.611099 -0.532842 1.838238 -34.382599 0.000000 0.000000 0.000000 -9.471730 -13.719966 5.915038 3.254357 -51.079381 -5.165193 94.206525 -38.819883 -38.258183 0.000000 0.000000 0.000000 37.975051 -3.112333 -6.738145 39.323742 6.292657 -3.317453 0.567168 19.655481 0.834175 0.000000 0.000000 0.000000 
-0.001801 0.935735 0.008462 -0.827288 4.668489 -1.544731 8.222526 -0.062895 11.252558 -4.333537 0.358756 -9.542502 1.571542 7.392780 11.054325 0.000000 0.000000 0.000000 -4.688518 -0.464296 7.531460 4.977845 -0.572360 -4.776495 -2.457761 -8.459116 8.610057 0.000000 0.000000 0.000000 4.459068 -0.261600 3.050829 -3.646259 1.645795 -20.512297 -0.684977 -5.189655 26.334103 1.375022 1.011967 -34.684607 0.000000 0.000000 0.000000 -14.841551 -12.974258 6.116672 -8.754139 -45.935616 -1.019423 97.102283 -49.903578 -51.034514 0.000000 0.000000 0.000000 38.396786 -3.482322 -6.927559 40.063429 6.614269 -3.296596 0.296898 20.218049 0.836164 0.000000 0.000000 0.000000 
-0.002424 0.934852 0.008572 -0.844063 4.879367 -1.245666 8.568395 -0.121015 10.607988 -4.799150 0.368729 -9.043859 1.567550 7.282458 10.662802 0.000000 0.000000 0.000000 -4.302930 -0.455758 7.021777 4.467176 -0.533261 -4.391487 -2.686362 -8.811372 8.135421 0.000000 0.000000 0.000000 4.955102 -0.275250 2.956320 -3.971047 1.747176 -20.023346 -1.493204 -4.489249 26.158224 3.923779 -0.063397 -34.585721 0.000000 0.000000 0.000000 -20.500556 -12.359968 6.098565 -15.972749 -38.884225 0.414921 89.438563 -61.422425 -56.303172 0.000000 0.000000 0.000000 40.254728 -4.214763 -7.431470 39.621372 7.013858 -3.239890 0.204480 20.885131 0.885879 0.000000 0.000000 0.000000 
-0.002723 0.934223 0.008973 -0.949085 3.673075 -1.076211 8.590539 -0.077467 10.149186 -4.893275 0.404927 -8.084733 2.252204 8.190120 10.284253 0.000000 0.000000 0.000000 -4.297507 -0.387946 6.430655 4.453170 -0.517651 -3.916404 -2.273813 -7.935537 7.672364 0.000000 0.000000 0.000000 5.546658 -0.256502 2.506302 -4.032714 1.733043 -20.055668 -2.338495 -2.945737 27.024913 5.513944 -0.612065 -35.489082 0.000000 0.000000 0.000000 -25.870039 -11.828433 5.952956 -20.207371 -32.605461 0.470484 51.588096 -67.946161 -32.249561 0.000000 0.000000 0.000000 42.721639 -4.707820 -7.864090 38.547185 8.549490 -2.913684 -0.446006 21.754483 0.859307 0.000000 0.000000 0.000000 
-0.002683 0.932984 0.009583 -1.048201 2.503299 -0.587423 8.444782 -0.024943 9.798951 -4.761066 0.421221 -7.913753 2.928996 9.128337 9.973053 0.000000 0.000000 0.000000 -4.291952 -0.321749 5.856140 4.413735 -0.501185 -4.056926 -1.883594 -7.081932 7.224595 0.000000 0.000000 0.000000 6.310957 -0.214478 1.755693 -4.287662 1.800770 -18.601129 -3.328046 -2.178521 26.437155 7.590583 -1.534016 -35.598903 0.000000 0.000000 0.000000 -29.894651 -12.074383 6.319890 -23.674710 -26.377155 0.042830 16.079231 -58.870290 -6.228447 0.000000 0.000000 0.000000 44.815466 -4.312252 -8.007271 38.119228 9.695291 -2.481221 -2.092366 21.523131 0.572795 0.000000 0.000000 0.000000 
-0.002446 0.932185 0.010504 -1.126357 2.025881 -0.591300 8.408994 -0.002408 9.813246 -4.689864 0.428481 -7.641460 3.232126 9.517093 9.655525 0.000000 0.000000 0.000000 -4.159819 -0.305498 5.611979 4.203975 -0.478257 -3.608625 -1.782016 -6.772494 6.768227 0.000000 0.000000 0.000000 6.395512 -0.236637 1.974870 -4.219900 1.761292 -19.055102 -3.888123 -2.630894 27.132966 8.552358 -1.987953 -36.468241 0.000000 0.000000 0.000000 -33.795517 -11.930847 6.877540 -27.397591 -21.998205 -0.619783 5.442571 -43.996992 -0.086664 0.000000 0.000000 0.000000 45.433124 -3.763111 -8.162498 37.913011 11.212426 -1.925771 -2.745583 21.395416 0.440604 0.000000 0.000000 0.000000 
-0.002113 0.931582 0.011536 -0.997296 1.223428 -0.128403 8.059133 0.050776 9.384309 -4.590308 0.438381 -7.359803 3.681289 10.179141 9.538555 0.000000 0.000000 0.000000 -4.428756 -0.238786 5.153621 4.243883 -0.472542 -3.759020 -1.516375 -6.186531 6.530773 0.000000 0.000000 0.000000 6.421009 -0.229424 1.817258 -3.900055 1.649450 -18.855575 -4.515728 -2.376563 26.883415 8.685281 -1.970229 -37.098466 0.000000 0.000000 0.000000 -36.064519 -11.157197 6.584024 -30.636066 -18.033844 -1.373613 1.240999 -32.558113 1.142675 0.000000 0.000000 0.000000 45.747432 -3.411025 -8.128052 38.314388 11.774259 -1.680143 -3.062748 21.820965 0.388532 0.000000 0.000000 0.000000 
-0.001840 0.931777 0.012573 -0.973851 1.197463 0.154040 8.114961 0.037727 9.152578 -4.784436 0.446406 -7.369678 3.681627 10.198976 9.645958 0.000000 0.000000 0.000000 -4.431224 -0.211716 4.787053 4.175486 -0.465859 -3.544321 -1.533074 -6.222634 6.530977 0.000000 0.000000 0.000000 6.298899 -0.198396 1.468041 -3.851430 1.638724 -18.421024 -4.751985 -2.476253 26.738915 8.815410 -2.030878 -37.122591 0.000000 0.000000 0.000000 -36.874279 -10.731232 6.366242 -33.362683 -14.342386 -2.260328 -1.256782 -28.957244 1.654398 0.000000 0.000000 0.000000 46.151396 -3.027731 -7.981665 38.115921 11.976322 -1.563440 -3.165188 22.858059 0.380657 0.000000 0.000000 0.000000 
-0.001495 0.932284 0.013180 -0.921720 1.749406 0.340601 8.029700 0.019850 8.952078 -4.631374 0.431115 -7.506611 3.411805 9.815600 9.768623 0.000000 0.000000 0.000000 -4.325123 -0.201092 4.421692 3.969796 -0.452067 -3.049522 -1.793335 -6.754118 6.575827 0.000000 0.000000 0.000000 6.032361 -0.158375 1.053507 -3.840829 1.650312 -18.317156 -4.796496 -2.058717 27.208236 8.418667 -1.728985 -37.412556 0.000000 0.000000 0.000000 -37.453944 -10.538566 5.850791 -34.304218 -12.460836 -2.678885 -3.650975 -28.680623 2.228916 0.000000 0.000000 0.000000 46.303080 -3.027632 -7.454317 37.673607 12.081443 -1.733502 -2.434603 24.569399 0.590036 0.000000 0.000000 0.000000 
-0.001138 0.932884 0.013306 -0.800670 2.467180 0.509491 8.130967 -0.023307 8.588962 -4.900158 0.431336 -7.428203 3.039668 9.276865 9.883080 0.000000 0.000000 0.000000 -4.292674 -0.209028 4.373744 3.795602 -0.444214 -3.102761 -2.070814 -7.368389 6.830253 0.000000 0.000000 0.000000 5.788178 -0.127585 0.723396 -3.856684 1.671249 -18.293813 -4.739457 -2.034304 27.389725 8.089284 -1.555661 -37.155522 0.000000 0.000000 0.000000 -36.908190 -10.040301 5.192743 -35.264350 -11.405524 -2.936799 -6.235821 -32.879345 3.374053 0.000000 0.000000 0.000000 46.104824 -3.103500 -7.120503 37.497321 12.262516 -1.807355 -1.717653 25.577394 0.787051 0.000000 0.000000 0.000000 
-0.000721 0.933141 0.012858 -0.855800 3.167770 0.445892 8.203541 -0.059322 8.176921 -4.782276 0.422707 -6.878529 2.774076 8.826505 9.636339 0.000000 0.000000 0.000000 -4.410320 -0.220895 4.473183 4.216805 -0.487296 -3.040290 -2.303596 -7.871767 7.056115 0.000000 0.000000 0.000000 5.545031 -0.092618 0.377617 -4.092323 1.764938 -17.909756 -4.329025 -1.884628 27.621715 7.938369 -1.424498 -37.069119 0.000000 0.000000 0.000000 -36.313534 -9.987765 4.819596 -35.798209 -11.519983 -2.864903 -9.739888 -39.347227 5.396860 0.000000 0.000000 0.000000 45.606180 -3.140767 -6.605270 37.760401 12.575385 -1.888753 -0.856911 26.268977 1.026296 0.000000 0.000000 0.000000 
